<svg xmlns="http://www.w3.org/2000/svg" width="7.937" height="6.236" viewBox="0 0 7.937 6.236">
  <g id="envelope" transform="translate(0)">
    <g id="Group_46" data-name="Group 46">
      <path id="Path_302" data-name="Path 302" d="M.762,56.742q.151.106.908.631t1.16.808l.188.135q.144.1.239.168t.23.144a1.336,1.336,0,0,0,.255.119.7.7,0,0,0,.221.04h.009a.7.7,0,0,0,.221-.04,1.338,1.338,0,0,0,.255-.119q.135-.08.23-.144t.239-.168l.188-.135,2.073-1.439a2.1,2.1,0,0,0,.54-.545,1.17,1.17,0,0,0,.217-.669.715.715,0,0,0-.709-.709H.709a.632.632,0,0,0-.525.23A.894.894,0,0,0,0,55.626a1.034,1.034,0,0,0,.244.6A2.2,2.2,0,0,0,.762,56.742Z" transform="translate(0 -54.82)" fill="#fff"/>
      <path id="Path_303" data-name="Path 303" d="M7.493,184.822q-1.452.983-2.205,1.528-.252.186-.41.29a2.527,2.527,0,0,1-.419.213,1.274,1.274,0,0,1-.487.109H3.964a1.275,1.275,0,0,1-.487-.109,2.528,2.528,0,0,1-.419-.213q-.157-.1-.41-.29-.6-.438-2.2-1.528A2.346,2.346,0,0,1,0,184.437v3.516a.682.682,0,0,0,.208.5.682.682,0,0,0,.5.208H7.228a.711.711,0,0,0,.709-.709v-3.516A2.442,2.442,0,0,1,7.493,184.822Z" transform="translate(0 -182.426)" fill="#fff"/>
    </g>
  </g>
</svg>
